<svg width="142" height="142" viewBox="0 0 142 142" fill="none" xmlns="http://www.w3.org/2000/svg">
<g clip-path="url(#clip0_6754_497333)">
<path d="M141.752 28.133C141.568 27.7948 141.295 27.5141 140.961 27.3219C140.628 27.1298 140.248 27.0338 139.863 27.0446L126.504 27.5543L118.563 16.7394C118.335 16.4282 118.024 16.1873 117.665 16.0437C117.307 15.9002 116.915 15.8599 116.535 15.9273C116.155 15.9947 115.801 16.1671 115.514 16.4251C115.226 16.683 115.017 17.0162 114.91 17.3869L111.201 30.2271L98.5177 34.4429C98.1496 34.5634 97.8229 34.7848 97.5746 35.0818C97.3264 35.3789 97.1665 35.7396 97.1134 36.1229C97.0602 36.5063 97.1159 36.8969 97.2739 37.2502C97.432 37.6035 97.6862 37.9053 98.0075 38.1213L109.037 45.616L109.133 58.9798C109.123 59.3769 109.228 59.7685 109.435 60.1077C109.642 60.4468 109.942 60.7192 110.3 60.8922C110.658 61.0652 111.058 61.1315 111.453 61.083C111.847 61.0346 112.219 60.8736 112.525 60.6192L123.071 52.353L135.824 56.3897C136.19 56.5033 136.58 56.513 136.951 56.4177C137.323 56.3225 137.66 56.126 137.926 55.8502C138.192 55.5744 138.376 55.2301 138.458 54.8559C138.539 54.4816 138.515 54.0921 138.388 53.7307L133.838 41.1661L141.614 30.3097C141.838 29.9959 141.969 29.6257 141.994 29.241C142.018 28.8564 141.934 28.4726 141.752 28.133Z" fill="#15D9DC"/>
<path d="M121.403 80.4305C121.226 80.087 120.954 79.8016 120.619 79.6086C120.284 79.4156 119.901 79.3231 119.514 79.3421L109.864 79.659L104.17 71.9439C103.934 71.6663 103.629 71.4561 103.285 71.3344C102.941 71.2128 102.572 71.1841 102.213 71.2512C101.855 71.3184 101.521 71.4789 101.245 71.7167C100.969 71.9545 100.76 72.261 100.641 72.6052L97.8835 81.8082L88.7844 84.8392C88.4164 84.9597 88.0897 85.1811 87.8414 85.4781C87.5931 85.7752 87.4333 86.1359 87.3802 86.5193C87.327 86.9026 87.3826 87.2932 87.5407 87.6465C87.6988 87.9998 87.953 88.3016 88.2743 88.5176L96.2153 93.8907L96.2842 103.535C96.288 103.92 96.3993 104.296 96.6057 104.621C96.812 104.946 97.1051 105.207 97.452 105.375C97.7989 105.542 98.1857 105.61 98.5688 105.57C98.952 105.529 99.3163 105.383 99.6206 105.147L107.231 99.1948L116.371 102.088C116.739 102.203 117.131 102.214 117.504 102.118C117.877 102.022 118.216 101.824 118.483 101.546C118.749 101.269 118.933 100.922 119.013 100.545C119.093 100.169 119.066 99.7774 118.935 99.4153L115.668 90.4051L121.32 82.6624C121.547 82.3374 121.675 81.9543 121.689 81.5586C121.704 81.1629 121.605 80.7714 121.403 80.4305Z" fill="#FFCF28"/>
<path d="M51.7128 14.1623C51.5372 13.8177 51.2652 13.5314 50.93 13.3382C50.5947 13.145 50.2105 13.0532 49.8241 13.074L33.9559 13.5975L24.526 0.839937C24.2975 0.528823 23.9864 0.287859 23.6279 0.144334C23.2695 0.000808408 22.8779 -0.0395427 22.4977 0.0278501C22.1175 0.0952429 21.7637 0.267687 21.4765 0.525652C21.1893 0.783618 20.9801 1.1168 20.8726 1.48746L16.4747 16.7386L1.37862 21.7535C1.0106 21.874 0.683858 22.0954 0.43559 22.3925C0.187322 22.6895 0.0275085 23.0502 -0.0256514 23.4336C-0.0788113 23.8169 -0.023181 24.2075 0.134904 24.5608C0.29299 24.9141 0.547177 25.216 0.86852 25.432L14.0208 34.3319L14.1448 50.1893C14.1486 50.5743 14.2599 50.9506 14.4663 51.2758C14.6726 51.6009 14.9657 51.862 15.3126 52.0296C15.6594 52.1972 16.0463 52.2646 16.4294 52.2243C16.8126 52.1839 17.1768 52.0374 17.4811 51.8012L30.013 42.0609L45.178 46.8415C45.5456 46.9567 45.938 46.967 46.3111 46.8713C46.6842 46.7756 47.0231 46.5777 47.2896 46.2998C47.5562 46.022 47.7398 45.6753 47.8198 45.2987C47.8998 44.9222 47.8729 44.5308 47.7423 44.1687L42.338 29.2482L51.5749 16.3391C51.7987 16.0252 51.9303 15.655 51.9546 15.2704C51.979 14.8857 51.8952 14.5019 51.7128 14.1623Z" fill="#CF28FF"/>
<path d="M68.4633 142C67.732 142 67.0307 141.71 66.5136 141.193C65.9965 140.676 65.706 139.976 65.706 139.245C65.7184 130.839 67.736 122.558 71.5913 115.087C75.4467 107.616 81.0287 101.172 87.8745 96.288C88.4705 95.8641 89.2106 95.6942 89.9319 95.8157C90.6533 95.9371 91.2968 96.3399 91.7209 96.9355C92.1451 97.5311 92.3151 98.2706 92.1936 98.9915C92.0721 99.7123 91.669 100.355 91.073 100.779C84.9418 105.155 79.9426 110.928 76.4901 117.62C73.0376 124.312 71.2311 131.73 71.2206 139.259C71.2169 139.987 70.9248 140.684 70.4081 141.198C69.8914 141.712 69.1922 142 68.4633 142Z" fill="#2832AC"/>
<path d="M58.3854 139.548C58.0052 139.548 57.6288 139.473 57.2775 139.328C56.9263 139.182 56.6071 138.969 56.3383 138.7C56.0694 138.432 55.8562 138.113 55.7107 137.762C55.5652 137.411 55.4903 137.035 55.4903 136.655C55.5115 120.104 59.4809 103.797 67.0694 89.0853C74.6578 74.374 85.6465 61.6825 99.1243 52.0635C99.7495 51.6178 100.526 51.4384 101.284 51.565C102.041 51.6916 102.718 52.1138 103.164 52.7386C103.61 53.3634 103.789 54.1397 103.663 54.8968C103.536 55.6538 103.113 56.3295 102.488 56.7753C89.7599 65.863 79.3834 77.8525 72.2193 91.7493C65.0552 105.646 61.31 121.05 61.2944 136.682C61.2871 137.447 60.977 138.178 60.4318 138.715C59.8867 139.252 59.1509 139.551 58.3854 139.548Z" fill="#2832AC"/>
<path d="M54.4425 97.1145C53.6747 97.1145 52.9383 96.8097 52.3953 96.2671C51.8524 95.7245 51.5474 94.9886 51.5474 94.2213C51.5374 86.3184 49.6425 78.5317 46.0198 71.5068C42.397 64.4819 37.1508 58.4212 30.7161 53.827C30.4065 53.6063 30.1435 53.3268 29.942 53.0045C29.7405 52.6822 29.6045 52.3233 29.5417 51.9485C29.479 51.5737 29.4908 51.1901 29.5764 50.8198C29.662 50.4496 29.8197 50.0997 30.0406 49.7903C30.2614 49.481 30.5411 49.2181 30.8637 49.0167C31.1862 48.8154 31.5453 48.6795 31.9204 48.6168C32.2955 48.5541 32.6792 48.5659 33.0498 48.6514C33.4203 48.7369 33.7704 48.8945 34.08 49.1153C41.2655 54.2449 47.1235 61.0126 51.1683 68.8571C55.2131 76.7016 57.328 85.3967 57.3377 94.2213C57.3377 94.9886 57.0326 95.7245 56.4897 96.2671C55.9467 96.8097 55.2104 97.1145 54.4425 97.1145Z" fill="#2832AC"/>
<path d="M39.2223 82.8553L30.1233 79.8243L27.4625 70.6212C27.355 70.2506 27.1458 69.9174 26.8586 69.6594C26.5714 69.4015 26.2176 69.229 25.8374 69.1616C25.4572 69.0942 25.0656 69.1346 24.7072 69.2781C24.3487 69.4216 24.0376 69.6626 23.8091 69.9737L18.1153 77.6889L8.46485 77.372C8.07955 77.3595 7.69842 77.4549 7.36449 77.6474C7.03057 77.8399 6.75713 78.1218 6.57504 78.4614C6.39296 78.8009 6.30948 79.1846 6.33403 79.5691C6.35858 79.9535 6.49018 80.3235 6.71398 80.6372L12.2285 88.435L9.09902 97.4176C8.96838 97.7797 8.94154 98.1711 9.02152 98.5476C9.1015 98.9241 9.28512 99.2709 9.55169 99.5487C9.81826 99.8266 10.1572 100.024 10.5303 100.12C10.9034 100.216 11.2958 100.206 11.6633 100.09L20.8037 97.1972L28.3724 103.08C28.6758 103.315 29.0388 103.462 29.4208 103.503C29.8027 103.544 30.1885 103.477 30.5349 103.311C30.8813 103.146 31.1746 102.886 31.382 102.563C31.5893 102.24 31.7024 101.866 31.7087 101.482L31.7777 91.8379L39.7186 86.4648C40.04 86.2488 40.2942 85.947 40.4523 85.5937C40.6103 85.2404 40.666 84.8498 40.6128 84.4665C40.5596 84.0831 40.3998 83.7224 40.1516 83.4254C39.9033 83.1283 39.5766 82.9069 39.2085 82.7864L39.2223 82.8553Z" fill="#FF2828"/>
<path d="M51.1751 116.623C50.6826 116.621 50.1987 116.493 49.7693 116.252C49.3399 116.011 48.9791 115.665 48.7212 115.245C45.2711 109.762 40.7794 105.006 35.5 101.248C34.8747 100.802 34.4523 100.126 34.3256 99.3694C34.1989 98.6124 34.3784 97.8361 34.8245 97.2113C35.2705 96.5864 35.9467 96.1643 36.7043 96.0377C37.4618 95.9111 38.2386 96.0904 38.8639 96.5362C44.7571 100.74 49.7687 106.057 53.6153 112.187C53.8911 112.624 54.0447 113.127 54.0602 113.643C54.0757 114.16 53.9525 114.671 53.7034 115.124C53.4544 115.576 53.0885 115.954 52.6439 116.218C52.1993 116.482 51.6921 116.622 51.1751 116.623Z" fill="#2832AC"/>
<path d="M83.8489 54.0886L79.5752 48.3022L81.9326 41.5101C82.0573 41.1461 82.0779 40.7545 81.9919 40.3794C81.9059 40.0044 81.7169 39.6607 81.4461 39.3872C81.1753 39.1137 80.8334 38.9212 80.459 38.8314C80.0846 38.7415 79.6926 38.7579 79.327 38.8787L72.4338 41.1519L66.6849 36.8121C66.3786 36.5941 66.0187 36.4637 65.6437 36.4348C65.2688 36.406 64.8931 36.4798 64.5571 36.6484C64.221 36.8171 63.9373 37.0741 63.7365 37.3918C63.5357 37.7095 63.4254 38.0759 63.4175 38.4516V45.6432L57.5169 49.7763C57.2002 49.9966 56.9515 50.3009 56.7989 50.6549C56.6462 51.009 56.5958 51.3987 56.6531 51.7799C56.7105 52.1612 56.8734 52.5188 57.1235 52.8123C57.3736 53.1059 57.7009 53.3236 58.0684 53.441L64.9616 55.6178L67.0571 62.5063C67.1785 62.8638 67.3957 63.1812 67.6849 63.4241C67.9741 63.667 68.3244 63.8261 68.6977 63.884H69.0286C69.3578 63.8836 69.6822 63.8046 69.9747 63.6537C70.2673 63.5027 70.5195 63.2841 70.7105 63.0161L74.8464 57.1746L82.0429 57.3124C82.4261 57.3076 82.8011 57.2019 83.1303 57.006C83.4595 56.8101 83.7312 56.5308 83.9179 56.1964C84.0968 55.8713 84.1849 55.504 84.1727 55.1331C84.1606 54.7622 84.0488 54.4014 83.8489 54.0886Z" fill="#2832AC"/>
</g>
<defs>
<clipPath id="clip0_6754_497333">
<rect width="142" height="142" fill="white"/>
</clipPath>
</defs>
</svg>
