<svg width="22" height="20" viewBox="0 0 22 20" fill="none" xmlns="http://www.w3.org/2000/svg">
<ellipse cx="11.2738" cy="10" rx="10.6704" ry="10" fill="#EDFFF0"/>
<ellipse cx="11.2737" cy="10" rx="7.46927" ry="7" fill="#34C759"/>
<path d="M10.0084 11.6269L14.3856 7.24967C14.4889 7.14638 14.6095 7.09473 14.7472 7.09473C14.8849 7.09473 15.0054 7.14638 15.1087 7.24967C15.212 7.35297 15.2637 7.47572 15.2637 7.61793C15.2637 7.76014 15.212 7.88272 15.1087 7.98567L10.3699 12.7374C10.2666 12.8407 10.1461 12.8923 10.0084 12.8923C9.87067 12.8923 9.75016 12.8407 9.64686 12.7374L7.42596 10.5165C7.32267 10.4132 7.27308 10.2906 7.27722 10.1487C7.28135 10.0069 7.33523 9.88411 7.43888 9.78046C7.54252 9.67682 7.66527 9.62517 7.80713 9.62552C7.94899 9.62586 8.07157 9.67751 8.17487 9.78046L10.0084 11.6269Z" fill="white"/>
</svg>
