<svg width="22" height="20" viewBox="0 0 22 20" fill="none" xmlns="http://www.w3.org/2000/svg">
<ellipse cx="11.2738" cy="10" rx="10.6704" ry="10" fill="#FFF9EB"/>
<ellipse cx="11.2737" cy="10" rx="7.46927" ry="7" fill="#FF8D28"/>
<g clip-path="url(#clip0_6699_125304)">
<path d="M11.0586 6.12598C12.143 6.12598 13.183 6.55677 13.9499 7.32358C14.7167 8.09039 15.1475 9.13041 15.1475 10.2148C15.1475 11.2993 14.7167 12.3393 13.9499 13.1061C13.183 13.8729 12.143 14.3037 11.0586 14.3037C9.97416 14.3037 8.93414 13.8729 8.16733 13.1061C7.40052 12.3393 6.96973 11.2993 6.96973 10.2148C6.96973 9.13041 7.40052 8.09039 8.16733 7.32358C8.93414 6.55677 9.97416 6.12598 11.0586 6.12598ZM11.0586 6.55638C10.0883 6.55638 9.15776 6.94183 8.47167 7.62792C7.78558 8.31401 7.40013 9.24456 7.40013 10.2148C7.40013 11.1851 7.78558 12.1157 8.47167 12.8018C9.15776 13.4879 10.0883 13.8733 11.0586 13.8733C11.539 13.8733 12.0148 13.7787 12.4586 13.5948C12.9025 13.411 13.3058 13.1415 13.6455 12.8018C13.9852 12.462 14.2547 12.0587 14.4386 11.6149C14.6224 11.171 14.717 10.6953 14.717 10.2148C14.717 9.24456 14.3316 8.31401 13.6455 7.62792C12.9594 6.94183 12.0289 6.55638 11.0586 6.55638ZM10.8434 7.8476H11.2738V10.1804L13.2967 11.3468L13.0815 11.7213L10.8434 10.43V7.8476Z" fill="white"/>
</g>
<defs>
<clipPath id="clip0_6699_125304">
<rect width="10.3298" height="10.3298" fill="white" transform="translate(6.10889 4.83496)"/>
</clipPath>
</defs>
</svg>
