<svg width="50" height="50" viewBox="0 0 50 50" fill="none" xmlns="http://www.w3.org/2000/svg">
<circle cx="25" cy="25" r="25" fill="#FF9500" fill-opacity="0.2"/>
<path fill-rule="evenodd" clip-rule="evenodd" d="M12.1971 31.4838L22.7309 13.4273C24.0077 11.4304 26.0339 11.3796 27.3375 13.4273L37.698 31.2659C38.5231 32.9142 38.113 35.1386 35.4179 35.083H14.3015C12.5267 35.1265 11.372 33.5847 12.1923 31.4838H12.1971Z" fill="#FF9500"/>
<path d="M24.0541 30.017C24.2822 29.7931 24.5835 29.6575 24.9036 29.6346C25.1028 29.6212 25.3025 29.6501 25.4895 29.7193C25.6726 29.7903 25.8389 29.8983 25.9777 30.0363C26.2105 30.2656 26.3511 30.5711 26.3732 30.8956C26.38 31.0089 26.3734 31.1226 26.3537 31.2345C26.2984 31.5536 26.1286 31.8421 25.8755 32.0468C25.6225 32.2514 25.3032 32.3584 24.9768 32.3479C24.7853 32.3444 24.5966 32.3015 24.4227 32.222C24.1107 32.0797 23.8647 31.8254 23.7343 31.5104C23.6938 31.4116 23.6651 31.3084 23.6488 31.203C23.6319 31.0982 23.627 30.9918 23.6342 30.8859C23.6527 30.7179 23.6997 30.5543 23.7733 30.4018C23.8372 30.258 23.9312 30.1292 24.0492 30.0242L24.0541 30.017ZM26.0461 27.5385C25.9973 28.6978 24.0174 28.7003 23.9711 27.5385C23.7709 25.5513 23.2582 20.4248 23.2753 18.5586C23.2924 17.9826 23.7636 17.6413 24.3885 17.5106C24.7914 17.4312 25.2062 17.4312 25.6091 17.5106C26.2463 17.6461 26.7443 17.9947 26.7443 18.5853V18.6433L26.0461 27.5385Z" fill="white"/>
</svg>
