<svg width="50" height="50" viewBox="0 0 50 50" fill="none" xmlns="http://www.w3.org/2000/svg">
<g filter="url(#filter0_d_5079_50847)">
<circle cx="25" cy="25" r="25" fill="#FF3B30" fill-opacity="0.2" shape-rendering="crispEdges"/>
</g>
<path d="M28.9831 22.6301C27.6444 21.8914 26.2936 21.1769 24.9428 20.4625C23.8936 19.9054 22.8081 19.9054 21.7468 20.4383C21.1076 20.7531 20.6252 21.2375 20.2875 21.8914C23.6765 23.6957 27.0293 25.5 30.4183 27.3043C30.4786 27.159 30.551 27.0379 30.5872 26.9047C31.2023 25.2457 30.551 23.4898 28.9831 22.6301Z" fill="#FF3B30"/>
<path d="M32.9148 11.9375C32.6495 11.5621 32.2756 11.3441 31.8294 11.2473C31.3469 11.1383 31.0696 11.2473 30.8163 11.659C29.2725 14.1293 27.7408 16.5875 26.1971 19.0578C26.1489 19.1426 26.1006 19.2152 26.0524 19.3C26.0765 19.3363 26.1006 19.3606 26.1247 19.3727C27.174 19.9297 28.2233 20.4988 29.2967 21.068C29.3328 21.0074 29.357 20.9832 29.369 20.9469C30.5751 18.2102 31.7811 15.4734 32.9992 12.7367C33.1198 12.4461 33.0837 12.1918 32.9148 11.9375Z" fill="#FF3B30"/>
<path d="M29.3811 28.3458C29.5861 27.8129 29.3329 27.2196 28.8022 27.0137C28.2836 26.8079 27.6806 27.0622 27.4755 27.595C27.367 27.8735 25.1358 33.6618 26.9449 37.7305C26.0886 37.7184 24.7257 37.5247 22.8202 36.7981C22.4704 35.684 22.2172 33.9645 22.989 31.9301C22.989 31.9301 21.1438 34.0493 20.8302 35.9383C20.4322 35.7446 20.0221 35.5387 19.5759 35.2965C19.1417 35.0543 18.7317 34.8243 18.3578 34.6063C19.7568 33.3106 20.4925 30.586 20.4925 30.586C19.2382 32.354 17.6583 33.1047 16.5487 33.4196C14.8843 32.2208 13.9798 31.1915 13.4974 30.4891C17.8754 29.7626 21.4573 24.6887 21.6262 24.4465C21.9518 23.9864 21.8312 23.3446 21.3729 23.0176C20.9146 22.6907 20.2754 22.8118 19.9498 23.2719C19.9136 23.3325 15.9457 28.9149 12.0622 28.5032C11.7607 28.4668 11.4471 28.5758 11.23 28.7938C11.0129 29.0118 10.9044 29.3145 10.9285 29.6293C10.9647 29.9926 11.4953 33.2864 18.6231 37.1251C22.6393 39.2805 25.3529 39.7891 27.0052 39.7891C28.2957 39.7891 28.9469 39.4864 29.0917 39.4137C29.3691 39.2684 29.562 39.0141 29.6223 38.6993C29.6826 38.3965 29.5982 38.0817 29.4052 37.8395C26.8966 34.8122 29.3691 28.4184 29.3811 28.3458Z" fill="#FF3B30"/>
<defs>
<filter id="filter0_d_5079_50847" x="0" y="0" width="50" height="50" filterUnits="userSpaceOnUse" color-interpolation-filters="sRGB">
<feFlood flood-opacity="0" result="BackgroundImageFix"/>
<feColorMatrix in="SourceAlpha" type="matrix" values="0 0 0 0 0 0 0 0 0 0 0 0 0 0 0 0 0 0 127 0" result="hardAlpha"/>
<feOffset/>
<feComposite in2="hardAlpha" operator="out"/>
<feColorMatrix type="matrix" values="0 0 0 0 1 0 0 0 0 0 0 0 0 0 0 0 0 0 1 0"/>
<feBlend mode="normal" in2="BackgroundImageFix" result="effect1_dropShadow_5079_50847"/>
<feBlend mode="normal" in="SourceGraphic" in2="effect1_dropShadow_5079_50847" result="shape"/>
</filter>
</defs>
</svg>
