<svg width="50" height="50" viewBox="0 0 50 50" fill="none" xmlns="http://www.w3.org/2000/svg">
<g filter="url(#filter0_d_7937_669933)">
<circle cx="25" cy="25" r="25" fill="#1D4380" fill-opacity="0.15" shape-rendering="crispEdges"/>
</g>
<g clip-path="url(#clip0_7937_669933)">
<path fill-rule="evenodd" clip-rule="evenodd" d="M26.1167 13.0065L14.5862 14.7369C14.2649 14.7852 14 15.1189 14 15.4506V35.8854C14 36.2156 14.2615 36.343 14.5862 36.3883L26.1167 37.9967C26.4409 38.0416 26.7029 37.6177 26.7029 37.283V13.5095C26.7029 13.1748 26.4346 12.9592 26.1167 13.0065ZM32.1802 29.0604L32.1797 27.3984C32.1516 27.4066 32.1215 27.4115 32.0909 27.4115H29.4964C29.3241 27.4115 29.1834 27.2671 29.1834 27.0969V23.8673C29.1834 23.6976 29.3275 23.5527 29.4964 23.5527H32.0909C32.1215 23.5527 32.1511 23.5576 32.1792 23.5659V21.9043C32.1792 21.5974 32.4267 21.3481 32.7319 21.3481C32.8915 21.3481 33.0352 21.4164 33.1361 21.5252L36.8243 24.984C37.0471 25.1923 37.0597 25.5436 36.8525 25.7675L33.1186 29.4551C32.9017 29.6697 32.5524 29.6668 32.3389 29.4488C32.2377 29.345 32.1808 29.2057 32.1802 29.0604ZM27.9461 35.3799H29.4512V29.8532H30.6823V35.4097C30.6823 35.74 30.5464 36.0415 30.3295 36.2605C30.1126 36.481 29.8118 36.6171 29.4808 36.6171H27.9461V35.3799ZM29.4512 21.1115V15.5847H27.9461V14.3476H29.4808C29.8113 14.3476 30.1121 14.4837 30.3295 14.7022C30.5464 14.9208 30.6823 15.2233 30.6823 15.5555V21.1115H29.4512ZM25.1972 23.9664L23.9875 23.6893V27.311L25.1972 26.9608V23.9664Z" fill="#1D4380"/>
</g>
<defs>
<filter id="filter0_d_7937_669933" x="0" y="0" width="50" height="50" filterUnits="userSpaceOnUse" color-interpolation-filters="sRGB">
<feFlood flood-opacity="0" result="BackgroundImageFix"/>
<feColorMatrix in="SourceAlpha" type="matrix" values="0 0 0 0 0 0 0 0 0 0 0 0 0 0 0 0 0 0 127 0" result="hardAlpha"/>
<feOffset/>
<feComposite in2="hardAlpha" operator="out"/>
<feColorMatrix type="matrix" values="0 0 0 0 1 0 0 0 0 0 0 0 0 0 0 0 0 0 1 0"/>
<feBlend mode="normal" in2="BackgroundImageFix" result="effect1_dropShadow_7937_669933"/>
<feBlend mode="normal" in="SourceGraphic" in2="effect1_dropShadow_7937_669933" result="shape"/>
</filter>
<clipPath id="clip0_7937_669933">
<rect width="23" height="25" fill="white" transform="translate(14 13)"/>
</clipPath>
</defs>
</svg>
