<svg width="50" height="50" viewBox="0 0 50 50" fill="none" xmlns="http://www.w3.org/2000/svg">
<g filter="url(#filter0_d_7937_669891)">
<circle cx="25" cy="25" r="25" fill="#FF9500" fill-opacity="0.2" shape-rendering="crispEdges"/>
</g>
<path d="M32.0833 32.0833L37.75 37.75M12.25 23.5833C12.25 26.5891 13.444 29.4718 15.5695 31.5972C17.6949 33.7226 20.5775 34.9167 23.5833 34.9167C26.5891 34.9167 29.4718 33.7226 31.5972 31.5972C33.7226 29.4718 34.9167 26.5891 34.9167 23.5833C34.9167 20.5775 33.7226 17.6949 31.5972 15.5695C29.4718 13.444 26.5891 12.25 23.5833 12.25C20.5775 12.25 17.6949 13.444 15.5695 15.5695C13.444 17.6949 12.25 20.5775 12.25 23.5833Z" stroke="#FF9500" stroke-width="1.5" stroke-linecap="round" stroke-linejoin="round"/>
<path d="M23.5833 17.9166V23.5833M23.5833 29.25H23.5974" stroke="#FF9500" stroke-width="3" stroke-linecap="round" stroke-linejoin="round"/>
<defs>
<filter id="filter0_d_7937_669891" x="0" y="0" width="50" height="50" filterUnits="userSpaceOnUse" color-interpolation-filters="sRGB">
<feFlood flood-opacity="0" result="BackgroundImageFix"/>
<feColorMatrix in="SourceAlpha" type="matrix" values="0 0 0 0 0 0 0 0 0 0 0 0 0 0 0 0 0 0 127 0" result="hardAlpha"/>
<feOffset/>
<feComposite in2="hardAlpha" operator="out"/>
<feColorMatrix type="matrix" values="0 0 0 0 1 0 0 0 0 0 0 0 0 0 0 0 0 0 1 0"/>
<feBlend mode="normal" in2="BackgroundImageFix" result="effect1_dropShadow_7937_669891"/>
<feBlend mode="normal" in="SourceGraphic" in2="effect1_dropShadow_7937_669891" result="shape"/>
</filter>
</defs>
</svg>
